<?xml version="1.0" standalone="no"?>
<!DOCTYPE svg PUBLIC "-//W3C//DTD SVG 20010904//EN"
 "http://www.w3.org/TR/2001/REC-SVG-20010904/DTD/svg10.dtd">
<svg version="1.0" xmlns="http://www.w3.org/2000/svg"
 width="300.000000pt" height="300.000000pt" viewBox="0 0 300.000000 300.000000"
 preserveAspectRatio="xMidYMid meet">
<metadata>
Created by potrace 1.14, written by Peter Selinger 2001-2017
</metadata>
<g transform="translate(0.000000,300.000000) scale(0.100000,-0.100000)"
fill="#000000" stroke="none">
<path d="M1385 2640 c-3 -6 1 -7 9 -4 18 7 21 14 7 14 -6 0 -13 -4 -16 -10z"/>
<path d="M1406 2630 c-10 -10 -24 -16 -31 -14 -7 3 -16 0 -21 -7 -5 -8 -3 -10
7 -4 11 6 11 5 3 -4 -6 -7 -20 -14 -30 -15 -11 -2 -18 -10 -16 -20 2 -9 -3
-15 -10 -14 -7 2 -12 -5 -12 -14 1 -10 -1 -17 -5 -16 -19 2 -31 -3 -26 -12 3
-5 2 -10 -2 -10 -5 0 -13 -10 -18 -22 -6 -13 -16 -22 -22 -21 -6 1 -17 -4 -23
-12 -8 -9 -8 -15 -2 -15 6 0 13 5 15 10 3 6 4 5 3 -2 -1 -7 -13 -19 -27 -25
-14 -7 -18 -13 -9 -13 13 0 13 -1 0 -10 -8 -5 -16 -14 -16 -20 -1 -5 -2 -15
-3 -21 0 -5 -5 -7 -11 -4 -5 3 -10 -3 -10 -14 0 -12 -4 -21 -10 -21 -5 0 -7
-6 -4 -14 7 -17 -24 -48 -39 -39 -8 4 -8 2 1 -9 10 -12 10 -17 -1 -27 -8 -6
-17 -7 -22 -3 -4 4 -5 -3 -2 -16 3 -14 1 -20 -6 -15 -6 4 -8 0 -4 -10 4 -12 1
-17 -11 -17 -15 0 -15 -2 -2 -10 12 -8 12 -10 1 -10 -8 0 -11 -7 -8 -19 3 -15
1 -18 -11 -14 -10 4 -13 2 -8 -5 4 -7 1 -12 -9 -12 -9 0 -13 -4 -10 -10 3 -5
1 -10 -4 -10 -6 0 -11 6 -11 13 0 9 -2 9 -9 -1 -7 -11 -9 -11 -14 2 -4 9 -1
16 5 16 6 0 8 3 5 6 -4 4 -13 1 -22 -6 -11 -9 -15 -9 -15 -1 0 7 -4 10 -9 7
-4 -3 -16 3 -26 14 -13 14 -22 17 -34 10 -11 -6 -22 -3 -35 8 -15 13 -17 13
-11 2 4 -8 -5 -4 -21 10 -15 14 -22 17 -15 8 17 -23 3 -23 -22 0 -11 9 -17 11
-13 5 4 -7 2 -13 -3 -13 -6 0 -11 7 -11 15 0 8 -5 15 -11 15 -6 0 -8 -7 -5
-17 6 -16 6 -16 -12 0 -22 20 -36 22 -26 5 4 -7 -2 -5 -13 5 -14 12 -23 15
-28 8 -3 -6 -11 -11 -16 -11 -6 0 -7 5 -3 11 5 8 1 8 -13 0 -14 -7 -23 -7 -30
0 -8 8 -13 7 -17 0 -4 -6 -12 -11 -17 -11 -6 0 -7 5 -3 11 5 8 1 8 -13 0 -14
-7 -23 -7 -31 1 -7 7 -14 5 -23 -10 -7 -11 -19 -18 -26 -15 -9 4 -11 0 -6 -13
4 -12 3 -15 -6 -9 -10 6 -11 3 -1 -15 7 -13 8 -20 2 -16 -6 3 -13 2 -17 -4 -3
-5 -2 -10 3 -10 5 0 9 -7 9 -15 0 -11 -4 -12 -13 -4 -8 7 -14 6 -20 -2 -4 -8
-3 -9 4 -5 7 4 12 4 13 -1 0 -4 2 -18 3 -30 2 -13 -1 -23 -5 -23 -5 0 -5 -7
-2 -17 5 -12 3 -14 -8 -8 -12 7 -12 6 -1 -7 9 -12 10 -18 2 -23 -8 -5 -8 -11
1 -21 9 -11 8 -14 -2 -14 -12 0 -12 -2 0 -9 9 -6 10 -10 2 -16 -9 -5 -9 -10
-1 -20 8 -10 8 -15 0 -20 -8 -5 -8 -10 0 -20 8 -9 8 -15 0 -20 -5 -3 -10 -11
-10 -16 0 -6 4 -8 8 -5 4 2 8 -4 8 -14 0 -10 -3 -17 -7 -14 -8 5 -6 -13 5 -38
4 -9 5 -22 1 -28 -3 -5 -1 -10 4 -10 6 0 11 -4 11 -10 0 -5 -8 -6 -17 -3 -17
7 -17 6 0 -11 9 -9 17 -26 17 -37 0 -11 4 -17 10 -14 6 3 7 -1 4 -10 -4 -8 -1
-22 5 -29 9 -11 9 -16 0 -21 -8 -6 -7 -10 5 -17 11 -6 15 -16 10 -30 -4 -14
-2 -18 5 -14 7 5 11 -2 11 -18 0 -14 4 -26 9 -26 5 0 12 -7 15 -16 3 -8 2 -13
-3 -10 -5 3 -14 -1 -21 -10 -11 -12 -15 -12 -21 -2 -5 7 -9 9 -9 3 0 -5 -20
-9 -44 -8 -29 1 -49 -3 -57 -13 -9 -12 -15 -12 -27 -2 -14 11 -15 10 -8 -7 4
-11 4 -16 0 -12 -4 4 -14 1 -23 -6 -14 -10 -14 -10 -4 3 10 13 9 16 -7 16 -10
0 -16 -4 -14 -8 3 -4 -4 -8 -15 -8 -11 0 -26 -6 -33 -13 -7 -8 -19 -12 -27 -9
-8 3 -11 0 -7 -7 5 -7 1 -9 -8 -5 -9 3 -16 2 -16 -3 0 -14 -49 -35 -62 -27 -7
4 -8 2 -4 -4 4 -7 1 -12 -9 -12 -9 0 -13 -5 -9 -11 4 -7 1 -10 -7 -7 -8 3 -20
-1 -27 -9 -8 -7 -17 -11 -20 -9 -4 2 -8 -16 -10 -41 -3 -48 6 -108 15 -99 9 9
41 -37 36 -51 -3 -7 0 -13 6 -13 6 0 11 -7 11 -15 0 -8 5 -15 10 -15 6 0 10
-7 10 -15 0 -8 5 -15 11 -15 5 0 8 -4 5 -9 -3 -5 1 -12 10 -15 10 -4 14 -12
10 -22 -5 -13 -4 -14 7 -6 17 14 28 6 20 -16 -4 -10 -2 -13 5 -8 7 4 12 1 12
-7 0 -10 8 -14 23 -11 12 2 16 2 10 -2 -14 -6 -18 -25 -5 -23 24 4 52 -2 47
-11 -3 -5 -1 -10 5 -10 6 0 8 -5 4 -12 -4 -6 -3 -8 3 -5 6 4 20 -5 33 -18 19
-20 26 -23 39 -12 12 9 13 9 7 0 -4 -8 -1 -13 9 -13 9 0 14 -4 11 -8 -3 -5 1
-9 9 -9 8 0 12 4 9 9 -4 5 3 4 14 -3 12 -7 18 -17 15 -23 -4 -5 1 -7 10 -3 10
4 17 1 17 -6 0 -8 4 -6 10 3 8 12 10 12 10 -5 0 -17 2 -17 10 -5 8 12 10 12
10 1 0 -9 7 -11 21 -8 15 4 19 2 15 -9 -6 -15 15 -15 26 1 4 5 10 2 13 -8 6
-13 11 -14 26 -6 14 7 19 6 19 -2 0 -8 4 -8 15 1 13 11 14 10 8 -6 -6 -16 -5
-17 9 -6 14 11 18 10 27 -5 6 -11 11 -13 11 -5 0 7 5 10 12 6 7 -4 8 -3 4 5
-4 6 -12 8 -18 5 -6 -4 -8 -2 -5 4 4 5 16 8 27 5 11 -3 18 -9 15 -13 -3 -5 -1
-11 4 -14 5 -4 13 -1 17 5 5 8 3 9 -6 4 -8 -5 -11 -4 -6 3 6 9 49 8 66 -3 3
-2 12 0 20 5 9 6 18 3 27 -8 12 -16 12 -15 6 2 -4 13 -3 17 5 12 6 -3 13 -2
17 4 4 7 12 7 25 0 13 -7 21 -7 25 0 9 15 27 12 20 -2 -4 -7 0 -5 8 5 15 18
32 24 22 7 -3 -6 1 -7 9 -4 9 3 13 11 10 16 -4 6 4 4 17 -3 22 -11 23 -11 10
5 -12 14 -12 16 2 10 8 -3 25 -1 36 6 16 8 21 8 21 -2 0 -9 3 -9 10 2 7 11 10
11 10 2 0 -7 5 -10 10 -7 6 3 10 -3 10 -14 0 -12 5 -21 11 -21 6 0 9 -9 6 -19
-3 -13 0 -18 8 -15 7 3 15 -2 19 -11 3 -9 2 -13 -4 -10 -6 3 -7 -1 -4 -10 4
-9 12 -14 19 -11 8 3 11 -2 8 -14 -3 -10 3 -27 14 -37 10 -11 23 -28 30 -39 6
-10 15 -19 20 -18 8 1 59 -49 55 -53 -7 -8 0 -23 8 -18 5 3 17 -6 26 -20 9
-14 21 -25 27 -25 5 0 16 -8 24 -18 9 -10 11 -11 7 -2 -5 10 1 8 16 -5 13 -11
20 -15 17 -8 -4 6 -3 14 3 18 5 3 10 1 10 -5 0 -7 7 -10 15 -6 8 3 21 -4 31
-17 l16 -22 -7 25 c-4 18 -3 21 3 11 7 -9 16 -11 28 -6 11 4 27 7 38 6 10 -2
15 2 12 7 -4 6 3 8 16 4 14 -3 19 -2 14 6 -5 8 1 12 14 12 16 0 20 4 16 16 -5
14 -4 15 9 4 13 -11 14 -10 9 5 -5 12 -4 16 3 12 6 -4 23 9 38 29 15 19 30 33
33 30 3 -3 11 -1 19 5 11 10 11 15 1 27 -10 13 -10 14 0 8 8 -5 12 -1 12 11 0
15 2 16 10 3 8 -12 10 -11 10 8 0 12 5 22 11 22 6 0 9 7 5 15 -3 8 0 14 6 12
6 -1 14 9 18 23 4 14 12 24 18 23 7 -2 9 4 5 14 -4 10 -2 14 4 10 6 -4 14 0
17 9 3 8 2 12 -4 9 -6 -3 -7 1 -4 10 4 9 13 14 22 10 13 -5 13 -3 1 12 -8 9
-9 14 -3 10 7 -4 14 1 17 13 7 25 47 23 42 -2 -3 -12 0 -16 8 -11 19 12 38 12
31 1 -5 -7 2 -9 19 -6 17 3 24 1 20 -5 -4 -6 0 -8 11 -4 10 4 19 1 23 -9 5
-13 7 -13 14 -2 6 8 9 9 9 2 0 -7 16 -11 39 -10 22 0 37 -2 35 -5 -2 -4 3 -9
11 -12 10 -4 12 -1 9 11 -5 15 -4 15 9 -1 11 -14 16 -15 20 -5 4 10 6 10 6 -1
1 -11 4 -11 18 0 11 10 14 10 9 1 -9 -16 6 -16 23 0 11 11 13 10 8 -4 -3 -10
-1 -20 5 -24 6 -4 8 -3 5 3 -4 6 1 17 10 24 10 8 14 9 10 2 -5 -8 0 -11 13
-10 11 1 20 4 20 7 0 3 9 6 20 7 11 1 18 -2 16 -6 -3 -4 1 -8 9 -8 8 0 12 4 9
9 -3 4 11 8 30 8 20 0 36 5 36 11 0 5 5 7 10 4 6 -4 7 -12 3 -18 -4 -8 -1 -8
9 1 9 7 20 11 24 10 5 -2 10 1 11 6 3 18 35 29 44 15 8 -12 13 -6 11 12 -1 3
11 6 26 5 19 -1 26 3 24 14 -2 8 0 12 4 8 4 -4 13 -3 21 3 7 6 13 8 13 3 0 -5
5 -2 10 6 7 11 10 11 10 2 0 -7 5 -10 10 -7 6 4 8 10 5 15 -6 10 12 23 40 27
11 2 24 9 30 15 7 8 6 9 -5 3 -9 -5 -12 -4 -7 1 5 5 16 9 25 9 9 0 16 5 15 12
-2 7 3 10 11 7 8 -3 16 3 19 15 3 12 13 21 22 21 9 0 13 5 10 10 -6 9 8 14 28
11 4 0 6 2 5 6 -4 15 23 53 38 53 8 0 12 5 9 10 -3 6 -1 10 6 10 8 0 8 4 -1
15 -11 13 -10 14 4 9 12 -4 16 0 16 16 0 11 4 19 8 16 5 -3 9 0 9 7 0 7 4 21
9 31 6 15 4 17 -7 11 -8 -5 0 7 18 27 21 25 30 44 26 57 -3 13 -1 21 8 21 7 0
9 3 6 6 -4 4 -15 1 -24 -7 -10 -7 -15 -9 -11 -5 4 5 2 16 -5 24 -10 13 -9 14
3 7 13 -8 13 -7 0 10 -14 16 -73 48 -93 49 -5 1 -15 12 -24 26 -9 16 -12 18
-8 6 5 -19 5 -19 -12 -4 -13 12 -23 14 -35 7 -14 -8 -16 -7 -11 7 4 12 3 15
-5 10 -7 -4 -12 -3 -12 2 0 6 -7 13 -16 16 -12 5 -14 3 -8 -7 5 -7 1 -4 -8 6
-17 19 -18 19 -18 1 -1 -18 -1 -18 -11 -1 -8 14 -14 15 -24 7 -10 -8 -15 -8
-21 1 -5 8 -3 9 7 4 12 -8 12 -6 0 8 -12 15 -31 15 -31 1 0 -3 5 -2 12 2 7 4
8 3 4 -4 -10 -17 -15 -15 -26 11 -7 18 -9 18 -9 4 -1 -10 -6 -15 -11 -12 -6 4
-8 10 -6 14 3 3 -4 7 -15 7 -10 0 -19 -3 -19 -6 0 -4 -13 -5 -29 -2 -29 4 -52
33 -32 40 5 2 7 10 4 19 -4 11 -2 14 5 9 8 -5 12 0 12 14 0 11 7 23 15 26 14
6 14 8 -1 19 -15 11 -15 12 -1 18 11 4 14 12 10 23 -4 12 -3 15 5 10 8 -5 10
-2 6 9 -4 8 0 23 7 32 8 9 9 14 3 10 -6 -3 -11 0 -11 8 0 8 3 14 6 13 19 -2
24 4 11 12 -13 9 -13 10 0 10 13 0 13 1 0 10 -9 6 -10 10 -3 10 7 0 10 10 7
26 -3 14 -1 23 3 21 4 -3 8 10 8 29 0 19 -4 34 -10 35 -5 0 -1 4 10 9 l20 9
-20 0 c-17 1 -17 3 -5 11 10 6 11 10 3 10 -7 0 -13 5 -13 11 0 5 4 8 9 5 12
-8 2 35 -13 53 -8 11 -8 13 2 7 14 -8 12 19 -2 43 -6 9 -5 12 1 8 7 -4 10 3 9
17 0 13 -4 22 -7 20 -4 -2 -6 18 -5 45 1 29 -2 49 -8 48 -6 -1 -10 9 -11 22 0
13 -6 26 -13 29 -6 2 -10 7 -8 10 2 4 -16 7 -40 6 -28 -1 -41 2 -37 9 4 6 1 7
-8 2 -20 -13 -60 -15 -53 -3 4 7 0 7 -12 1 -11 -5 -34 -8 -52 -7 -17 1 -30 -1
-27 -5 2 -5 -6 -6 -19 -4 -13 3 -27 0 -30 -6 -4 -6 -13 -11 -19 -11 -7 0 -6 4
3 10 8 5 10 10 4 10 -6 0 -19 -8 -30 -18 -17 -17 -20 -17 -32 -3 -8 9 -11 10
-7 4 5 -11 2 -14 -20 -13 -12 1 -32 -26 -27 -35 3 -5 -1 -4 -10 3 -12 10 -18
9 -28 -3 -7 -8 -16 -12 -21 -9 -13 8 -50 -6 -44 -16 3 -4 -2 -10 -10 -13 -10
-4 -12 -1 -8 11 6 15 5 16 -12 2 -11 -9 -16 -10 -11 -2 5 8 1 12 -11 12 -15 0
-16 2 -3 10 13 8 13 10 -1 10 -17 0 -22 31 -7 41 5 3 2 9 -7 12 -11 5 -14 3
-10 -6 3 -6 -2 -1 -12 12 -21 29 -28 65 -11 55 7 -3 1 6 -15 20 -15 15 -25 31
-22 37 4 5 -1 9 -9 9 -8 0 -18 5 -22 12 -5 7 -3 8 7 3 8 -5 6 1 -4 13 -11 12
-16 26 -11 34 4 7 4 10 -1 6 -9 -8 -35 15 -35 31 0 6 -13 24 -28 39 -15 15
-19 20 -8 12 20 -14 20 -14 6 5 -8 11 -21 24 -28 28 -7 5 -9 13 -6 19 4 7 2 8
-4 4 -7 -4 -12 -2 -12 4 0 6 -4 8 -10 5 -5 -3 -10 3 -10 15 0 12 -3 19 -8 16
-4 -2 -16 3 -27 11 -16 13 -17 15 -2 10 9 -4 17 -2 17 3 0 10 -23 15 -45 10
-5 -1 -7 1 -3 5 8 9 -10 28 -35 38 -9 3 -16 12 -15 19 2 10 -17 14 -72 15 -63
2 -78 -1 -94 -17z m164 6 c0 -3 -4 -8 -10 -11 -5 -3 -10 -1 -10 4 0 6 5 11 10
11 6 0 10 -2 10 -4z m-77 -129 c-4 -6 1 -8 11 -4 13 5 19 1 23 -14 4 -16 8
-17 14 -7 6 9 9 6 9 -11 0 -21 2 -22 17 -10 10 8 14 9 10 2 -4 -6 1 -20 12
-30 10 -10 22 -28 25 -40 4 -13 13 -23 19 -23 7 0 21 -13 32 -28 15 -22 16
-24 2 -13 -15 12 -17 12 -11 -3 3 -9 12 -16 18 -16 7 0 20 -15 30 -32 45 -84
54 -97 62 -90 4 4 2 -1 -5 -11 -13 -16 -12 -19 7 -24 16 -4 22 -13 22 -34 0
-26 9 -34 33 -30 5 1 6 -3 3 -8 -4 -5 -3 -11 1 -14 5 -2 2 -2 -4 -1 -18 5 -16
-13 1 -19 8 -3 20 -15 26 -26 9 -17 8 -20 -5 -15 -14 6 -21 -12 -16 -39 1 -5
-3 -6 -9 -2 -6 4 -17 1 -25 -5 -11 -9 -15 -9 -15 -1 0 6 -6 10 -12 9 -7 -2
-14 7 -16 18 -2 12 -12 24 -24 27 -11 3 -17 10 -13 17 3 6 -2 18 -12 28 -11 9
-12 13 -3 8 8 -5 -2 7 -22 27 -20 21 -41 37 -47 37 -6 0 -10 3 -10 8 3 19 -2
33 -11 27 -6 -3 -7 1 -4 9 4 11 0 16 -11 16 -11 0 -15 5 -11 15 3 8 0 14 -7
12 -7 -1 -11 3 -10 10 2 8 -4 10 -14 6 -11 -4 -14 -3 -9 5 4 7 1 12 -9 12 -9
0 -13 5 -10 10 3 6 -1 10 -10 10 -10 0 -13 -5 -9 -12 4 -7 3 -8 -4 -4 -6 4 -9
14 -6 24 5 16 5 16 -8 0 -11 -13 -18 -14 -33 -5 -18 9 -19 9 -6 -6 12 -15 12
-17 -4 -11 -13 5 -16 4 -11 -4 5 -8 1 -10 -10 -5 -12 4 -15 3 -10 -5 4 -7 1
-12 -9 -12 -11 0 -15 -5 -11 -15 5 -14 -6 -20 -28 -16 -5 1 -3 -5 4 -14 11
-13 10 -15 -4 -9 -9 4 -16 3 -15 -2 3 -20 -2 -35 -10 -30 -12 8 -34 -21 -26
-34 4 -6 1 -9 -7 -8 -7 2 -12 -5 -12 -14 1 -10 -3 -16 -9 -15 -6 1 -11 -3 -12
-10 0 -6 -4 -15 -9 -20 -5 -4 -7 -3 -3 3 3 6 0 11 -7 11 -8 0 -11 -8 -8 -20 3
-14 1 -18 -6 -13 -8 5 -12 -1 -12 -14 0 -15 -5 -20 -14 -17 -9 4 -13 -2 -12
-15 1 -28 -30 -32 -47 -7 -8 10 -17 16 -20 12 -4 -3 -8 -1 -8 5 -1 7 -2 18 -3
25 -1 6 5 21 13 31 14 17 14 18 1 12 -8 -4 -7 -1 4 8 10 8 15 20 11 28 -3 7 1
4 9 -7 16 -18 16 -18 10 12 -4 20 -2 33 7 38 8 6 10 4 4 -5 -5 -9 -4 -11 4 -6
9 6 9 11 0 22 -9 11 -8 14 5 14 9 0 15 5 14 12 -2 7 2 12 9 13 6 0 15 4 20 9
5 5 3 6 -4 2 -7 -4 -13 -3 -13 2 0 6 8 13 17 16 15 6 15 8 3 16 -9 6 -10 10
-3 10 6 0 15 9 18 20 4 12 16 20 28 21 21 0 21 1 2 9 -11 5 -14 9 -7 9 7 1 10
6 7 11 -3 6 1 10 9 10 8 0 18 4 21 10 3 6 -1 7 -12 4 -11 -3 -9 0 5 8 12 8 19
17 16 21 -4 4 -2 7 5 7 7 0 9 5 5 12 -5 8 -2 9 11 4 15 -5 16 -4 5 9 -11 13
-10 14 4 9 12 -5 15 -2 9 12 -5 14 -3 16 11 11 10 -4 15 -3 11 3 -7 12 18 40
35 40 6 0 9 4 6 8 -2 4 4 14 16 21 16 10 19 10 14 -1 -4 -7 -1 -6 5 3 13 17
42 22 32 6z m141 -113 c3 -8 2 -12 -4 -9 -6 3 -10 10 -10 16 0 14 7 11 14 -7z
m-745 -287 c0 -9 -2 -8 -6 1 -2 6 -10 9 -15 6 -7 -4 -8 -2 -4 5 9 13 26 5 25
-12z m576 -17 c-3 -5 -1 -10 4 -10 6 0 11 5 11 10 0 6 4 10 10 10 5 0 7 -7 3
-15 -3 -10 0 -15 8 -13 8 2 13 -3 11 -10 -1 -8 2 -11 7 -8 5 4 12 2 16 -4 4
-6 12 -7 18 -3 7 4 6 0 -2 -10 -11 -15 -11 -18 7 -24 12 -5 21 -12 22 -18 1
-5 9 -9 18 -7 13 2 14 1 4 -6 -11 -8 -9 -14 10 -32 12 -13 17 -19 9 -15 -9 5
-12 4 -7 -3 4 -7 13 -12 21 -12 7 0 16 -7 19 -16 6 -15 4 -15 -11 -3 -15 11
-15 10 1 -9 11 -12 26 -22 35 -23 12 0 11 -3 -4 -9 -18 -8 -19 -9 -1 -9 13 -1
16 -6 12 -17 -5 -14 -4 -15 9 -4 13 11 14 10 10 -3 -4 -8 -1 -18 4 -22 6 -3 9
-10 6 -15 -3 -5 4 -11 15 -15 11 -3 20 -11 20 -17 0 -6 -6 -6 -15 2 -13 11
-14 10 -9 -4 3 -9 14 -16 23 -16 14 0 14 -2 1 -10 -9 -6 -11 -10 -3 -10 7 0
10 -7 6 -17 -4 -11 -3 -14 5 -9 7 4 12 1 12 -9 0 -9 4 -14 8 -11 4 2 9 -7 10
-22 1 -15 9 -32 17 -38 8 -6 12 -14 8 -17 -3 -4 -2 -7 4 -7 5 0 9 -13 8 -30
-1 -16 2 -27 6 -24 4 2 10 0 14 -6 3 -5 -2 -10 -12 -10 -14 0 -12 -3 7 -13 25
-13 33 -42 16 -64 -5 -8 -4 -13 3 -13 7 0 9 -9 5 -26 -5 -20 -4 -25 6 -19 9 6
10 3 1 -14 -8 -15 -9 -21 -1 -21 6 0 8 -5 5 -10 -4 -6 -12 -7 -18 -4 -8 5 -8
3 1 -7 15 -17 16 -43 0 -33 -7 4 -8 3 -4 -4 12 -19 16 -53 5 -47 -5 4 -9 -5
-9 -19 0 -18 -5 -26 -17 -26 -15 0 -16 -2 -3 -10 11 -7 11 -10 2 -10 -7 0 -11
-4 -7 -9 3 -5 1 -12 -5 -16 -6 -4 -8 -10 -5 -15 3 -5 0 -12 -6 -16 -8 -5 -9
-3 -4 6 6 9 4 11 -4 5 -7 -4 -10 -16 -8 -27 3 -11 3 -17 0 -14 -3 3 -12 -2
-20 -12 -9 -10 -12 -11 -7 -2 4 9 3 12 -2 7 -9 -8 -10 -12 -13 -39 0 -6 -4 -9
-7 -5 -3 3 -19 -7 -34 -23 -15 -16 -31 -26 -34 -23 -6 6 -10 -12 -7 -29 0 -5
-2 -7 -7 -6 -19 4 -61 -15 -55 -26 3 -6 3 -8 -2 -4 -4 4 -15 2 -23 -5 -10 -7
-13 -8 -9 -1 4 8 -2 11 -17 10 -20 -1 -22 -4 -13 -16 6 -8 7 -12 3 -8 -5 4
-15 3 -22 -3 -8 -7 -14 -6 -20 2 -5 8 -3 9 6 4 9 -6 11 -4 5 5 -7 11 -10 10
-19 -1 -14 -18 -44 -18 -56 1 -9 13 -10 13 -11 0 0 -10 -2 -11 -6 -2 -2 6 -16
12 -29 12 -13 0 -24 5 -24 11 0 7 -9 9 -21 6 -17 -5 -18 -3 -7 11 10 12 10 14
1 8 -7 -4 -13 -3 -13 3 0 6 -6 8 -12 6 -14 -5 -78 49 -78 66 0 5 -5 9 -11 9
-5 0 -7 -6 -3 -12 4 -8 3 -10 -2 -5 -5 5 -9 12 -9 15 -1 18 -27 52 -36 47 -5
-4 -9 1 -9 10 0 10 5 14 13 10 6 -4 4 0 -5 8 -10 8 -14 17 -10 21 4 4 2 7 -3
6 -22 -5 -36 1 -30 10 4 6 1 18 -7 27 -9 12 -9 15 0 9 18 -11 15 5 -5 21 -10
8 -12 12 -5 8 7 -4 12 0 12 10 0 9 -4 13 -10 10 -5 -3 -10 1 -10 9 0 9 -6 16
-12 16 -9 0 -8 4 2 10 12 8 12 10 1 10 -11 0 -11 3 0 16 10 13 10 17 0 23 -10
7 -10 13 -2 30 8 14 8 21 1 21 -8 0 -8 6 0 20 8 15 8 20 -2 20 -10 0 -10 3 1
9 8 5 11 16 8 25 -4 10 2 25 13 36 11 11 16 20 10 20 -5 0 -7 7 -4 15 4 8 10
12 15 9 5 -3 9 0 9 5 0 6 -5 11 -12 11 -6 0 -3 7 8 15 19 15 19 15 -1 9 -19
-5 -19 -5 -3 9 10 8 15 17 11 20 -3 4 -1 7 5 7 7 0 12 -5 12 -12 0 -6 3 -9 6
-6 3 4 1 16 -6 27 -8 15 -8 21 0 21 6 0 8 5 4 12 -5 7 -2 9 8 6 8 -4 15 0 15
8 0 7 -5 11 -11 8 -6 -3 -3 1 6 9 10 8 15 17 11 20 -3 4 0 7 8 7 11 0 11 2 -1
10 -13 9 -13 10 0 11 8 1 18 1 22 0 4 0 5 6 2 13 -6 16 17 66 40 85 9 7 13 18
9 24 -3 5 -2 7 4 4 6 -4 15 5 22 19 7 16 16 22 24 18 9 -6 9 -4 -1 8 -11 14
-10 17 7 23 12 3 24 17 27 31 3 13 10 22 14 19 5 -3 6 5 3 17 -4 19 -3 20 6 8
9 -13 11 -12 11 3 0 10 4 15 10 12 5 -3 12 6 16 20 3 14 12 25 20 25 8 0 14 5
14 11 0 5 -6 7 -12 3 -9 -5 -9 -2 1 9 15 18 26 23 16 7z m-877 -41 c-2 -6 3
-14 11 -17 8 -2 11 0 8 5 -3 5 0 10 8 10 8 0 12 -4 9 -9 -3 -5 7 -8 23 -7 15
1 37 -2 47 -6 13 -6 17 -5 13 2 -5 7 0 9 13 6 11 -3 17 -9 14 -14 -3 -5 3 -6
12 -2 12 5 15 3 9 -6 -6 -10 -3 -11 15 -1 20 11 22 10 17 -4 -7 -17 13 -18 25
-1 5 6 8 5 8 -4 0 -7 6 -11 15 -7 9 3 15 0 15 -9 0 -8 5 -15 11 -15 5 0 7 5 3
11 -4 7 3 6 17 -2 13 -7 28 -12 32 -11 5 1 6 -2 2 -8 -3 -5 3 -10 14 -10 12 0
30 -9 41 -20 11 -11 25 -20 31 -20 5 0 7 -6 3 -12 -4 -7 -4 -10 1 -6 4 4 15 2
23 -5 13 -10 14 -9 7 3 -4 8 2 6 13 -5 37 -35 50 -44 55 -38 7 7 2 -34 -8 -64
-4 -13 -11 -20 -16 -17 -5 3 -9 -2 -9 -11 0 -10 5 -13 13 -9 7 4 9 3 4 -2 -5
-5 -14 -9 -20 -9 -7 0 -12 -7 -12 -15 0 -8 -6 -19 -14 -24 -11 -7 -11 -10 0
-17 11 -7 11 -9 -3 -9 -9 0 -20 -5 -24 -12 -4 -6 -3 -8 4 -4 7 4 10 -2 9 -14
-1 -13 -6 -19 -16 -15 -11 4 -12 3 -1 -10 10 -12 10 -15 -2 -15 -8 0 -15 -7
-15 -15 0 -12 3 -12 15 -2 13 10 14 9 2 -10 -8 -12 -19 -19 -25 -15 -5 3 -4
-1 3 -10 11 -14 10 -18 -5 -27 -12 -7 -13 -10 -4 -11 10 0 11 -3 2 -14 -9 -11
-9 -16 0 -22 8 -4 9 -3 5 4 -4 7 -5 12 -2 12 14 0 14 -19 -1 -31 -14 -12 -16
-12 -8 0 5 10 4 12 -4 7 -6 -4 -8 -12 -5 -18 4 -6 0 -15 -7 -20 -11 -8 -10 -9
3 -4 10 3 20 1 23 -4 4 -6 -1 -10 -11 -10 -14 0 -15 -2 -3 -17 10 -11 10 -14
2 -9 -7 4 -13 2 -13 -3 0 -6 3 -11 8 -11 4 0 7 -20 7 -44 0 -24 -3 -42 -7 -40
-4 2 -9 0 -13 -6 -5 -9 7 -14 27 -11 3 0 3 -13 -2 -29 -7 -25 -6 -30 8 -31 10
0 12 -3 5 -6 -10 -3 -10 -10 -2 -24 9 -17 7 -19 -15 -15 -20 4 -26 0 -26 -12
0 -12 -4 -9 -13 8 -7 14 -21 24 -30 24 -10 -1 -17 5 -17 15 0 14 -2 14 -10 1
-9 -14 -14 -7 -11 13 1 4 -5 7 -12 5 -8 -2 -24 8 -38 22 -13 15 -17 17 -9 6
14 -20 14 -20 -5 -6 -11 8 -26 23 -34 33 -7 10 -29 34 -47 53 -19 19 -31 34
-27 34 4 1 -5 8 -22 16 -16 8 -22 12 -12 9 21 -6 13 13 -15 33 -10 7 -18 20
-18 28 0 9 -5 12 -12 8 -10 -5 -10 -4 -1 6 10 11 9 16 -5 27 -10 9 -11 12 -2
7 12 -7 13 -5 3 8 -7 8 -10 18 -6 21 3 4 1 7 -4 7 -6 0 -13 -3 -16 -7 -2 -5
-2 -2 0 5 1 7 -2 23 -8 34 -8 15 -8 19 0 14 6 -4 11 -3 11 2 0 5 -10 12 -22
15 -18 5 -19 8 -8 21 9 12 9 16 1 16 -7 0 -10 4 -6 9 3 5 2 12 -3 15 -5 3 -7
21 -6 40 2 20 -1 36 -6 36 -6 0 -10 5 -10 11 0 5 6 7 13 3 6 -4 9 -4 5 1 -4 4
-2 15 5 24 11 14 10 14 -6 2 -15 -12 -17 -11 -14 5 1 11 7 25 11 33 6 10 5 12
-2 7 -15 -9 -15 -1 -1 27 l12 22 -24 -20 c-16 -14 -20 -15 -10 -3 7 9 9 23 5
29 -4 8 -3 9 4 5 7 -4 12 -4 13 1 0 4 2 19 5 33 3 19 2 22 -6 10 -8 -12 -9
-11 -7 7 2 12 6 26 10 29 12 12 8 26 -5 18 -9 -6 -9 -3 0 9 8 9 11 21 7 27 -3
5 -1 10 6 10 7 0 10 3 6 6 -6 7 13 33 26 34 4 0 6 -5 5 -11z m1835 -26 c7 3
12 -5 12 -19 0 -21 -1 -22 -12 -8 -10 14 -11 13 -9 -10 1 -14 6 -29 11 -34 4
-4 5 -1 0 7 -5 9 -4 12 3 7 8 -4 8 -15 2 -31 -8 -20 -6 -25 6 -25 8 0 12 -5 9
-10 -4 -6 -12 -7 -18 -3 -7 4 -4 -6 7 -21 10 -16 13 -25 7 -22 -7 5 -11 -1
-11 -14 0 -12 4 -19 8 -16 5 3 9 -1 9 -9 0 -8 -4 -12 -9 -9 -10 6 -11 -10 -1
-20 11 -10 12 -37 2 -30 -5 3 -7 9 -5 13 3 4 -1 8 -8 8 -7 0 -13 -6 -13 -13 0
-7 5 -10 10 -7 6 4 8 -9 4 -35 -3 -28 -2 -40 5 -35 7 4 8 1 4 -6 -5 -7 -15
-10 -23 -7 -9 4 -11 2 -6 -7 11 -18 12 -37 2 -37 -5 0 -4 -10 2 -22 11 -21 11
-22 -4 -10 -14 12 -16 11 -12 -8 3 -16 0 -20 -11 -16 -10 4 -13 2 -7 -7 13
-20 12 -39 -1 -34 -9 4 -11 -3 -8 -21 4 -21 2 -24 -13 -18 -16 6 -16 4 -4 -11
12 -15 12 -16 -4 -10 -15 5 -16 4 -7 -13 7 -14 6 -23 -6 -34 -9 -9 -20 -14
-24 -11 -5 3 -7 -3 -5 -15 2 -11 -1 -23 -7 -26 -7 -5 -8 -2 -3 7 8 12 6 12 -8
0 -9 -7 -15 -17 -12 -21 3 -5 -4 -11 -15 -15 -11 -3 -20 -14 -20 -24 0 -11
-12 -24 -30 -31 -17 -7 -44 -30 -61 -51 -17 -22 -36 -39 -42 -39 -7 0 -1 10
13 21 24 19 24 20 2 9 -13 -6 -26 -18 -29 -26 -3 -7 -9 -11 -14 -8 -5 3 -9 0
-9 -6 0 -6 -8 -10 -17 -8 -10 2 -18 -3 -18 -12 0 -10 -9 -14 -23 -13 -13 2
-21 -1 -17 -7 3 -6 -1 -7 -9 -4 -19 7 -20 16 -3 33 9 11 9 12 0 7 -9 -5 -11
-2 -7 8 3 9 10 16 15 16 4 0 5 7 2 17 -4 9 -2 14 3 10 6 -3 11 4 11 16 2 17 0
19 -7 7 -6 -9 -10 -10 -10 -3 0 7 8 17 18 22 16 10 16 10 -1 11 -10 0 -15 5
-12 10 4 6 10 8 15 5 9 -5 5 33 -4 42 -3 3 -1 16 5 30 6 16 6 22 -1 18 -6 -3
-10 -1 -10 4 0 6 5 11 10 11 6 0 10 4 10 10 0 5 -7 7 -15 4 -17 -7 -21 11 -5
21 13 8 13 25 -1 25 -5 0 -7 -6 -3 -12 5 -9 3 -9 -9 1 -18 14 -13 36 6 25 7
-4 1 5 -13 21 -14 16 -20 25 -13 21 6 -3 14 -2 18 4 3 5 1 10 -4 10 -6 0 -11
7 -11 16 0 9 -8 23 -17 30 -17 13 -17 14 2 8 19 -5 19 -5 3 9 -14 11 -15 16
-5 26 9 10 8 11 -5 6 -19 -7 -25 9 -8 20 11 7 2 35 -12 35 -6 0 -4 -8 3 -17
13 -16 12 -17 -4 -4 -10 8 -16 20 -13 28 3 7 1 13 -5 13 -6 0 -7 5 -4 10 3 6
2 10 -4 10 -5 0 -8 9 -6 20 2 11 -1 23 -7 26 -7 5 -8 2 -4 -7 4 -8 0 -5 -8 5
-9 12 -13 28 -10 39 5 14 3 18 -7 13 -8 -4 4 9 26 28 22 20 46 34 54 31 8 -3
11 0 8 9 -4 10 1 13 18 11 13 -1 23 3 22 9 -1 6 4 10 12 8 8 -2 11 3 8 11 -3
7 1 14 9 15 8 1 21 3 29 4 8 1 15 5 15 9 0 4 10 9 23 11 12 2 21 9 19 17 -3
12 0 12 12 1 10 -8 16 -9 16 -2 0 6 7 9 15 5 9 -3 15 -2 14 3 -3 20 2 24 20
14 14 -7 20 -7 23 2 2 6 12 12 21 14 9 1 15 -2 11 -7 -3 -5 -10 -6 -16 -3 -7
5 -8 2 -4 -5 6 -9 12 -9 24 2 10 8 25 15 35 16 9 0 25 2 35 3 9 0 20 6 24 12
6 8 8 8 8 0 0 -7 7 -15 16 -18 14 -6 15 -4 4 9 -11 13 -11 16 1 13 8 -2 17 -7
21 -13 4 -6 8 -1 8 10 1 18 2 17 11 -4 5 -12 15 -21 22 -18z m-1939 -734 c-5
-9 1 -10 20 -5 14 3 26 2 26 -3 0 -5 7 -12 16 -15 15 -6 15 -4 3 10 -13 16
-12 16 7 6 12 -6 24 -8 28 -4 4 3 4 -1 0 -11 -5 -13 -2 -16 10 -11 11 4 16 1
16 -12 0 -16 2 -17 10 -4 8 13 10 13 10 -2 0 -9 7 -21 16 -26 8 -5 25 -22 36
-38 12 -18 18 -21 13 -9 -6 20 -6 20 13 0 10 -12 21 -27 24 -35 2 -8 13 -15
24 -15 10 0 18 -6 16 -13 -2 -9 4 -11 18 -7 14 4 20 2 18 -7 -2 -7 5 -12 14
-12 10 1 15 -3 11 -9 -4 -6 0 -8 10 -4 9 3 19 1 23 -5 5 -7 2 -8 -6 -3 -8 5
-11 4 -6 -3 4 -6 13 -9 21 -5 10 3 15 -1 15 -13 0 -16 2 -17 10 -4 8 12 12 11
30 -8 12 -12 25 -20 31 -17 5 4 9 0 10 -7 0 -11 2 -11 6 0 4 10 9 9 20 -5 8
-10 12 -13 9 -7 -3 6 1 11 8 11 8 0 12 -6 9 -13 -2 -6 2 -12 9 -11 54 2 76 -4
81 -24 5 -17 3 -18 -11 -7 -13 11 -15 11 -10 -2 4 -11 -4 -22 -24 -33 -16 -9
-27 -13 -24 -9 2 4 -4 8 -14 8 -14 0 -16 -4 -9 -12 7 -8 6 -15 -2 -20 -8 -4
-9 -3 -5 4 4 7 2 12 -3 12 -6 0 -11 -6 -11 -12 0 -9 -4 -8 -10 2 -9 14 -14 7
-11 -13 1 -4 -8 -3 -20 4 -12 6 -19 7 -15 1 3 -5 -1 -12 -9 -16 -8 -3 -15 -1
-15 5 0 6 -5 7 -10 4 -6 -4 -8 -10 -5 -14 2 -5 -7 -6 -20 -3 -16 3 -25 0 -25
-9 0 -8 -6 -5 -16 7 -8 10 -13 14 -10 7 4 -6 2 -14 -4 -18 -5 -3 -10 -1 -10 5
0 6 -5 8 -10 5 -6 -4 -7 -12 -3 -18 4 -7 0 -6 -10 2 -14 11 -17 11 -17 0 0
-11 -2 -11 -10 1 -6 10 -10 11 -10 3 0 -9 -7 -10 -24 -3 -17 6 -26 5 -28 -2
-3 -8 -15 -6 -38 5 -31 16 -34 16 -46 -1 -13 -16 -14 -16 -8 1 7 20 -6 22 -25
5 -11 -10 -13 -10 -7 0 4 6 2 12 -4 12 -6 0 -8 4 -5 10 4 6 -3 6 -21 0 -22 -9
-25 -8 -21 4 4 10 1 13 -8 9 -8 -3 -12 -10 -8 -17 4 -6 -1 -5 -10 2 -9 8 -22
10 -29 6 -9 -6 -9 -3 1 9 12 15 12 17 -4 11 -12 -5 -16 -4 -12 3 4 6 -3 10
-16 9 -12 -1 -29 6 -37 14 -13 14 -14 14 -5 0 5 -8 -2 -5 -15 6 -14 12 -35 27
-48 33 -13 7 -20 17 -15 24 4 7 0 7 -10 -2 -9 -7 -18 -11 -18 -7 -1 3 -2 10
-3 16 0 5 -11 17 -24 25 -12 9 -22 23 -22 32 0 9 -6 13 -15 10 -8 -4 -17 -1
-21 5 -5 7 -2 9 7 4 8 -4 4 1 -9 10 -12 9 -22 23 -22 31 0 8 -5 11 -12 7 -7
-5 -8 -3 -3 6 4 7 2 16 -6 21 -18 11 -21 52 -3 45 9 -3 11 0 7 11 -4 11 -2 14
5 9 7 -4 12 -2 12 4 0 7 7 9 16 6 11 -4 15 -2 11 7 -3 8 4 14 20 15 16 1 22
-2 18 -11 -4 -6 2 -2 12 11 15 18 21 20 31 10 9 -9 12 -8 12 6 0 16 2 16 16 6
12 -11 15 -11 12 0 -2 8 7 14 23 15 14 1 31 5 37 9 7 4 12 0 13 -11 1 -17 2
-17 6 -1 3 14 9 16 22 9 10 -6 23 -6 32 0 7 5 10 9 6 9 -9 0 1 20 9 20 3 0 2
-5 -2 -11z m1980 -17 c10 -2 16 1 13 6 -3 4 7 8 24 8 16 0 29 -4 29 -8 0 -5
-10 -6 -22 -2 -13 3 -20 3 -16 -1 11 -11 59 -15 53 -4 -4 5 1 6 9 3 9 -3 13
-10 10 -16 -3 -5 4 -4 15 4 18 11 23 11 31 -2 9 -13 10 -13 10 0 1 12 3 11 11
-3 9 -15 13 -16 27 -5 13 11 15 10 9 -5 -6 -15 -4 -16 13 -7 15 8 18 8 14 -3
-4 -11 1 -13 20 -10 15 3 26 1 26 -6 0 -5 7 -8 15 -5 8 4 17 -1 21 -10 3 -9
12 -16 19 -16 7 0 15 -6 18 -12 6 -18 -10 -58 -24 -58 -6 0 -9 -9 -6 -20 3
-11 0 -23 -5 -27 -7 -4 -8 -1 -4 8 4 8 -1 4 -11 -7 -10 -12 -27 -27 -38 -33
-18 -11 -18 -12 -1 -7 16 5 17 4 6 -8 -6 -9 -17 -14 -23 -13 -7 1 -11 -4 -10
-10 2 -7 -3 -12 -10 -10 -6 1 -11 -6 -11 -15 1 -15 -2 -16 -19 -7 -17 10 -19
9 -14 -5 6 -15 -4 -20 -41 -19 -9 1 -10 -3 -2 -12 8 -10 8 -15 -1 -21 -8 -4
-9 -3 -5 4 4 7 2 12 -4 12 -6 0 -13 -6 -16 -14 -3 -8 -15 -13 -26 -11 -14 3
-18 0 -14 -11 5 -12 2 -12 -15 -3 -17 9 -20 8 -14 -2 6 -9 3 -11 -9 -6 -10 4
-15 3 -11 -3 3 -6 1 -10 -5 -10 -6 0 -8 -5 -4 -12 4 -7 3 -8 -5 -4 -6 4 -9 12
-6 17 4 5 2 9 -4 9 -5 0 -11 -5 -13 -12 -2 -6 -21 -12 -41 -12 -34 -1 -42 -7
-38 -30 1 -5 -4 -5 -11 1 -7 6 -28 9 -46 7 -24 -3 -31 0 -27 9 4 6 -1 3 -9 -7
-14 -17 -19 -16 -18 4 0 3 -10 5 -23 5 -13 0 -21 -3 -18 -7 2 -5 -2 -8 -11 -8
-8 0 -17 6 -19 13 -3 6 -6 3 -6 -7 -1 -20 -1 -20 -17 0 -8 10 -13 13 -9 7 8
-17 -7 -17 -24 0 -8 6 -11 7 -8 1 3 -6 0 -11 -8 -11 -8 0 -12 4 -10 8 3 4 -2
10 -11 13 -8 3 -13 2 -10 -2 3 -5 -1 -9 -9 -9 -8 0 -13 5 -12 11 3 13 -34 14
-52 1 -12 -8 -13 -7 -6 4 6 11 4 13 -8 8 -17 -7 -41 15 -29 28 4 4 -3 2 -16
-4 -18 -9 -22 -9 -20 1 2 8 -6 13 -19 12 -16 0 -23 5 -23 18 0 10 -5 18 -11
18 -5 0 -7 -6 -3 -12 4 -7 -1 -5 -12 4 -15 15 -16 20 -5 30 8 8 11 8 8 2 -4
-7 10 -3 31 7 20 11 38 15 40 10 2 -6 12 -6 27 1 14 6 22 16 18 22 -3 6 -3 8
2 4 4 -4 15 -2 23 5 9 6 13 7 9 1 -3 -6 0 -11 8 -11 8 0 11 5 8 10 -4 7 1 8
12 3 15 -5 16 -4 6 8 -10 12 -9 14 6 11 10 -1 24 2 30 7 7 6 20 7 29 4 14 -5
15 -4 4 9 -7 8 -10 15 -7 15 3 0 14 3 24 6 15 5 15 4 3 -5 -8 -6 -10 -11 -4
-11 5 0 20 14 32 30 13 17 27 30 33 30 6 0 1 -9 -12 -21 -23 -20 -23 -20 9 1
17 12 32 26 32 32 0 5 7 8 14 5 11 -4 13 -1 9 11 -3 9 -3 14 2 10 4 -4 14 0
22 8 8 8 19 12 24 9 5 -4 6 2 2 11 -5 13 -3 15 7 9 8 -5 11 -3 8 6 -4 12 32
51 47 49 3 0 15 10 27 22 21 21 22 21 29 2 7 -17 8 -16 9 6 1 17 3 20 8 10 4
-8 15 -16 26 -18z m-274 -6 c0 -2 -8 -10 -17 -17 -16 -13 -17 -12 -4 4 13 16
21 21 21 13z m-2160 -126 c0 -5 -2 -10 -4 -10 -3 0 -8 5 -11 10 -3 6 -1 10 4
10 6 0 11 -4 11 -10z m1212 -289 c3 8 9 7 20 -5 9 -9 24 -16 33 -16 9 0 13 -5
9 -11 -4 -8 0 -8 15 0 12 7 21 8 20 4 -3 -21 3 -31 21 -36 11 -3 18 -1 14 4
-3 5 0 9 5 9 6 0 11 -5 11 -11 0 -5 5 -7 10 -4 6 3 10 1 10 -6 0 -8 4 -8 15 1
9 8 15 9 15 2 0 -11 31 -9 50 3 6 3 10 2 10 -3 0 -10 30 -9 47 1 6 4 18 4 26
1 8 -3 18 0 23 7 4 8 3 10 -4 5 -17 -10 -15 -1 2 13 11 9 18 8 30 -4 15 -15
16 -15 16 0 0 11 5 15 16 11 8 -3 12 -2 9 4 -3 6 1 10 9 10 8 0 18 5 22 12 5
7 2 8 -7 3 -8 -5 -11 -4 -6 0 4 5 16 9 27 10 11 1 18 -1 15 -3 -3 -3 1 -15 10
-28 13 -21 13 -22 -8 -17 -18 4 -19 3 -7 -6 10 -7 11 -11 3 -11 -7 0 -10 -7
-6 -17 4 -11 3 -14 -5 -9 -7 4 -12 2 -12 -4 0 -6 -4 -9 -8 -6 -5 3 -9 -1 -9
-9 0 -8 5 -12 11 -9 6 3 2 -2 -9 -11 -11 -9 -19 -18 -17 -20 6 -13 1 -25 -10
-19 -8 5 -9 0 -5 -15 5 -19 3 -20 -11 -9 -13 11 -15 11 -9 -4 4 -11 -1 -22
-12 -30 -10 -7 -20 -17 -22 -23 -2 -5 -8 -9 -12 -7 -5 1 -6 -2 -2 -8 3 -6 -4
-14 -17 -19 -13 -6 -19 -10 -13 -10 5 -1 -1 -8 -13 -17 -12 -8 -27 -12 -34 -8
-7 5 -8 3 -3 -6 6 -10 4 -12 -10 -6 -15 5 -16 4 -6 -8 10 -12 8 -13 -10 -9
-15 4 -20 2 -15 -5 16 -26 -50 10 -68 37 -11 16 -26 27 -33 24 -7 -3 -13 0
-13 7 0 6 -5 8 -12 4 -8 -5 -7 0 2 11 9 11 10 16 3 11 -8 -4 -13 -2 -13 4 0 6
-5 8 -12 4 -8 -5 -8 -2 1 10 8 9 10 16 5 15 -18 -3 -37 1 -31 7 10 10 -13 45
-25 38 -6 -4 -8 1 -3 15 4 15 3 21 -7 19 -8 -2 -12 4 -10 16 3 13 -1 17 -11
13 -11 -4 -13 0 -10 16 4 18 3 19 -6 7 -9 -12 -11 -7 -9 20 1 20 -2 42 -7 49
-6 10 -4 12 5 6 10 -6 12 -4 6 10 -5 15 -4 16 8 6 11 -9 15 -9 18 0z m-928
-37 c5 -14 4 -15 -9 -4 -17 14 -19 20 -6 20 5 0 12 -7 15 -16z m1077 -281 c13
-16 12 -17 -3 -4 -17 13 -22 21 -14 21 2 0 10 -8 17 -17z"/>
<path d="M1260 1800 c-6 -11 -8 -20 -6 -20 3 0 10 9 16 20 6 11 8 20 6 20 -3
0 -10 -9 -16 -20z"/>
<path d="M1843 1485 c0 -8 4 -12 9 -9 5 3 6 10 3 15 -9 13 -12 11 -12 -6z"/>
<path d="M1280 1006 c0 -2 8 -10 18 -17 15 -13 16 -12 3 4 -13 16 -21 21 -21
13z"/>
<path d="M1625 970 c-3 -6 1 -7 9 -4 18 7 21 14 7 14 -6 0 -13 -4 -16 -10z"/>
<path d="M2160 2006 c0 -2 8 -10 18 -17 15 -13 16 -12 3 4 -13 16 -21 21 -21
13z"/>
<path d="M2216 1313 c-6 -14 -5 -15 5 -6 7 7 10 15 7 18 -3 3 -9 -2 -12 -12z"/>
<path d="M500 1270 c-9 -6 -10 -10 -3 -10 6 0 15 5 18 10 8 12 4 12 -15 0z"/>
<path d="M2340 1225 c-7 -9 -8 -15 -2 -15 5 0 12 7 16 15 3 8 4 15 2 15 -2 0
-9 -7 -16 -15z"/>
<path d="M2755 1200 c-3 -5 -1 -10 4 -10 6 0 11 5 11 10 0 6 -2 10 -4 10 -3 0
-8 -4 -11 -10z"/>
<path d="M2945 1130 c-3 -5 -2 -10 4 -10 5 0 13 5 16 10 3 6 2 10 -4 10 -5 0
-13 -4 -16 -10z"/>
<path d="M30 1080 c0 -5 5 -10 11 -10 5 0 7 5 4 10 -3 6 -8 10 -11 10 -2 0 -4
-4 -4 -10z"/>
<path d="M2655 810 c-3 -5 -1 -10 4 -10 6 0 11 5 11 10 0 6 -2 10 -4 10 -3 0
-8 -4 -11 -10z"/>
<path d="M1875 760 c3 -5 8 -10 11 -10 2 0 4 5 4 10 0 6 -5 10 -11 10 -5 0 -7
-4 -4 -10z"/>
<path d="M1231 493 c7 -12 15 -20 18 -17 3 2 -3 12 -13 22 -17 16 -18 16 -5
-5z"/>
<path d="M1414 364 c-18 -14 -18 -15 4 -4 12 6 22 13 22 15 0 8 -5 6 -26 -11z"/>
</g>
</svg>
