<svg width="213" height="213" viewBox="0 0 213 213" fill="none" xmlns="http://www.w3.org/2000/svg">
<path d="M45.0343 44.2735C38.1118 45.795 34.0039 52.9457 35.6775 60.781C37.275 68.8446 42.6761 73.485 49.5225 72.8764C56.9775 72.1157 61.2375 66.4864 61.2375 57.3578C61.2375 52.6414 61.0093 51.6525 59.1075 49.2182C55.6082 44.6539 50.9679 42.9803 45.0343 44.2735ZM54.4671 50.2832C58.6511 54.1628 58.4229 61.846 54.0107 66.2582C51.12 69.225 48.6096 69.6814 45.1864 67.9318C38.2639 64.5085 37.5032 52.7175 43.9693 49.066C46.86 47.4685 52.1089 48.001 54.4671 50.2832Z" fill="#A9865B"/>
<path d="M162.945 44.2735C156.479 45.6428 152.219 52.6414 153.208 60.0203C154.349 68.0839 160.359 73.561 167.357 72.8764C172.15 72.42 175.497 69.9096 177.703 65.1171C181.05 57.8903 179.376 49.7507 173.671 46.1753C170.096 43.8932 167.205 43.3607 162.945 44.2735ZM171.009 49.4464C177.475 53.4021 176.486 64.8128 169.335 68.236C166.977 69.301 166.368 69.3771 163.858 68.3882C159.826 66.8668 158 64.0521 157.62 58.7271C157.24 53.4782 158.076 51.5003 161.5 49.4464C164.619 47.5446 167.814 47.5446 171.009 49.4464Z" fill="#A9865B"/>
<path d="M37.3511 79.4946C34.6886 80.1031 30.885 81.3963 28.9832 82.3092C23.8104 84.8956 23.5061 86.341 23.7343 107.489C23.9625 123.616 24.1146 125.366 25.4839 127.8C26.3207 129.245 28.1464 130.995 29.5157 131.603C31.1893 132.44 31.95 133.277 32.0261 134.646C32.0261 135.711 32.1021 147.426 32.1782 160.663C32.2543 176.638 32.6346 185.082 33.1671 185.614C33.6996 186.147 39.1007 186.375 49.1421 186.223L64.2804 185.995L64.5086 159.37L64.7368 132.745L67.1711 131.603C68.4643 130.995 70.3661 129.245 71.355 127.8C73.1046 125.213 73.1046 124.985 72.8764 105.511L72.6482 85.8085L70.5182 83.9828C65.2693 79.4946 47.8489 77.1363 37.3511 79.4946ZM54.7714 82.9178C61.0854 83.9067 66.5625 85.7324 67.7796 87.1778C68.4643 88.0145 68.6925 93.1874 68.6925 106.576C68.6925 124.225 68.6164 124.909 67.095 126.507C66.1821 127.343 64.3564 128.485 62.9871 128.865L60.4768 129.702L60.3246 155.186C60.2486 169.183 60.1725 181.126 60.0964 181.658C60.0964 182.419 58.8032 182.571 55.38 182.419L50.5875 182.191L50.3593 155.338L50.2071 128.561H48.3054H46.4036V155.566V182.571H41.4589H36.5143V156.327V130.006L33.1671 128.561C31.2654 127.8 29.4396 126.431 28.9832 125.594C28.4507 124.681 28.1464 117.378 28.1464 105.815C28.1464 85.1999 27.69 86.5692 34.5364 84.4392C41.0786 82.3853 47.8489 81.8528 54.7714 82.9178Z" fill="#A9865B"/>
<path d="M153.893 79.875C141.341 83.1461 141.341 83.1461 141.645 107.641C141.949 129.169 142.025 129.474 149.709 132.821C149.861 132.897 149.937 144.46 149.861 158.609C149.861 176.79 150.089 184.625 150.698 185.31C151.382 186.147 154.805 186.375 166.596 186.375C179.605 186.375 181.735 186.223 182.115 185.158C182.343 184.473 182.571 172.454 182.571 158.381V132.745L185.006 131.604C186.375 130.995 188.125 129.474 188.961 128.332C190.483 126.279 190.559 124.985 190.787 107.261C191.015 85.3521 190.863 84.5914 185.158 82.0811C176.638 78.2775 163.478 77.3646 153.893 79.875ZM178.54 84.135C186.908 86.3411 186.375 84.7436 186.375 106.272C186.375 124.529 186.299 125.061 184.701 126.811C183.789 127.8 182.343 128.561 181.43 128.561C178.083 128.561 178.007 129.017 178.007 156.479V182.647L173.291 182.419L168.498 182.191L168.27 155.338L168.118 128.561H166.216H164.314L164.162 155.338L163.934 182.191L159.218 182.419L154.425 182.647V156.479C154.425 128.941 154.349 128.561 150.926 128.561C149.937 128.561 148.491 127.648 147.655 126.583C146.133 124.681 146.057 123.616 146.057 106.044C146.057 87.6343 146.057 87.4821 147.807 86.4171C154.273 82.3854 167.89 81.3204 178.54 84.135Z" fill="#A9865B"/>
<path d="M83.2982 97.4473L78.1254 102.772L83.3743 108.097C88.6993 113.422 90.2207 114.259 91.0575 112.129C91.3618 111.368 90.1446 109.619 87.5582 106.956L83.6786 103.001L87.4821 99.273C91.59 95.2412 92.0464 94.0241 89.8404 92.883C88.6993 92.1984 87.6343 92.9591 83.2982 97.4473Z" fill="#A9865B"/>
<path d="M124.985 92.5792C123.16 93.2638 123.996 95.4699 127.572 99.0452L131.147 102.621L127.115 106.881C123.844 110.38 123.236 111.293 123.996 112.206C124.529 112.814 125.366 113.347 125.822 113.347C126.887 113.347 136.168 104.066 136.168 103.001C136.168 101.708 125.974 92.1988 124.985 92.5792Z" fill="#A9865B"/>
<path d="M92.4268 102.012C91.6661 104.294 93.8721 106.044 96.0021 104.903C98.2082 103.762 97.5236 100.871 94.9371 100.567C93.4157 100.414 92.8071 100.719 92.4268 102.012Z" fill="#A9865B"/>
<path d="M100.719 102.088C100.186 103.761 102.164 106.044 103.761 105.511C105.055 105.055 105.968 102.925 105.511 101.631C104.75 99.8057 101.403 100.034 100.719 102.088Z" fill="#A9865B"/>
<path d="M109.695 101.327C108.478 102.544 108.554 103.077 109.999 104.522C111.597 106.196 114.259 104.751 113.955 102.468C113.727 100.567 111.14 99.882 109.695 101.327Z" fill="#A9865B"/>
<path d="M118.063 101.327C116.846 102.544 116.922 103.077 118.367 104.522C119.965 106.196 122.627 104.751 122.323 102.468C122.095 100.567 119.508 99.882 118.063 101.327Z" fill="#A9865B"/>
</svg>
