<svg width="223" height="223" viewBox="0 0 223 223" fill="none" xmlns="http://www.w3.org/2000/svg">
<path d="M80.4014 22.2998C76.0779 23.5134 39.9731 40.1246 39.2905 41.2624C38.9871 41.7175 38.8354 42.4001 38.9112 42.7794C39.7456 45.2824 41.9452 44.5998 61.4388 35.4977L81.5391 26.1681L100.274 25.9406L119.009 25.6372L120.981 27.6093C122.802 29.4297 122.953 30.0365 122.726 34.7392L122.498 39.8212L100.881 40.2005L79.2636 40.5797L59.9218 49.6059C49.3027 54.5362 40.1248 59.0113 39.518 59.6182C38.1527 60.9076 38.9871 62.9556 40.9592 62.9556C41.7935 62.9556 50.5922 59.2389 60.4527 54.612L78.5051 46.3443L78.7327 49.9093C78.8085 51.8814 79.1119 54.2328 79.2636 55.2188L79.6429 56.8875L99.9708 56.7358L120.223 56.5083L120.602 50.8195C120.981 45.1307 120.981 45.1307 123.257 44.9032C126.898 44.4481 127.277 43.6896 127.353 36.1804C127.429 27.9127 126.215 24.5753 122.119 22.6032C119.844 21.3896 117.189 21.2379 101.639 21.3137C89.8827 21.3137 82.6769 21.693 80.4014 22.2998ZM116.051 48.544V52.3365H99.7432H83.4354V49.075C83.4354 47.2545 83.6629 45.51 83.9663 45.2824C84.1939 44.979 91.5514 44.7515 100.274 44.7515H116.051V48.544Z" fill="#A9865B"/>
<path d="M86.697 61.9698C85.9385 62.2732 85.7109 66.7484 85.7109 81.2358V100.123H87.5313C88.6691 100.123 89.5793 99.5916 89.8068 98.7573C90.2619 97.0885 90.3378 65.3073 89.8068 63.5627C89.4276 62.1974 88.0623 61.5147 86.697 61.9698Z" fill="#A9865B"/>
<path d="M98.2262 63.1074C97.9987 63.7142 97.9228 70.0857 97.9987 77.3673L98.2262 90.6411H100.122H102.019V76.6088C102.019 62.6523 102.019 62.5765 100.274 62.3489C99.364 62.1972 98.4538 62.5765 98.2262 63.1074Z" fill="#A9865B"/>
<path d="M110.514 62.6525C110.211 62.956 109.983 66.3692 109.983 70.1617C109.983 77.5192 110.817 79.5672 113.396 78.5811C114.382 78.2019 114.534 76.8366 114.382 70.3893C114.155 63.1835 114.003 62.5767 112.638 62.3491C111.728 62.1974 110.817 62.3491 110.514 62.6525Z" fill="#A9865B"/>
<path d="M111.045 84.8765C108.39 86.4693 106.57 90.1101 107.101 92.8408C107.404 94.5095 107.101 94.8129 104.218 95.4955C100.426 96.4816 97.8469 99.5156 97.8469 103.081V105.432H88.0623C79.4912 105.432 78.1259 105.584 76.3813 106.949C74.1058 108.769 72.5888 112.865 73.1956 115.52C73.6507 117.113 73.3473 117.644 71.3752 118.706C66.2174 121.36 65.383 128.566 69.8582 132.283C71.1476 133.345 72.4371 134.255 72.7405 134.255C73.0439 134.255 73.2714 135.924 73.2714 137.972C73.1956 140.626 73.5748 142.143 74.7126 143.357C75.9262 144.647 76.002 145.177 75.2435 146.239C70.9959 152.232 73.5748 159.437 80.4772 160.499C82.8286 160.878 83.4354 161.334 83.8146 163.078C84.4214 165.733 87.7589 168.843 90.6412 169.45C92.1582 169.753 94.4337 169.298 97.4677 168.008C102.095 166.112 103.081 166.34 103.156 169.298C103.156 170.891 107.404 174.456 109.452 174.532C113.169 174.759 114.989 174.076 132.055 166.795C143.205 162.092 150.715 159.286 152.459 159.286C153.9 159.286 158.527 157.996 162.699 156.479C169.677 153.9 171.118 153.673 180.903 153.293L191.522 152.838V150.942V149.046L181.206 148.818L170.891 148.591L163.761 151.473L156.631 154.355L126.215 154.583C98.9847 154.81 95.6473 154.659 94.5095 153.597C93.0684 152.156 92.9167 149.349 94.2061 148.06C94.8888 147.377 99.5157 147.15 110.514 147.15C124.395 147.15 125.912 146.998 126.518 145.784C128.187 142.674 127.58 142.599 103.46 142.599C81.3874 142.599 80.3255 142.523 78.8844 141.082C77.064 139.261 76.9881 138.123 78.4293 136.075C79.4912 134.71 80.7806 134.634 101.564 134.407L123.636 134.179V132.435C123.636 131.449 123.105 130.387 122.422 130.159C121.74 129.932 110.514 129.704 97.4677 129.704C76.8364 129.704 73.499 129.552 72.5129 128.49C70.9201 126.898 70.9959 124.925 72.6646 123.408C73.8782 122.271 77.064 122.119 98.6813 121.967L123.257 121.74V119.843V117.947L101.488 117.72L79.6429 117.568L78.4293 115.672C77.2915 113.927 77.2915 113.624 78.4293 111.879L79.6429 109.983H108.769C133.572 109.983 137.972 109.831 138.806 108.845C140.323 106.949 139.185 105.735 133.724 103.611C112.259 95.0404 110.362 93.8268 112.183 90.4135C113.472 88.0622 115.141 87.9105 120.526 89.5792C123.257 90.4135 130.159 91.8547 135.848 92.8408L146.164 94.5853L157.238 101.488C163.306 105.28 169.753 108.769 171.573 109.224C173.394 109.68 178.628 109.983 183.179 109.831C191.522 109.604 191.522 109.604 191.522 107.707V105.811L181.662 105.432C171.877 105.053 171.801 105.053 167.098 102.17C161.485 98.7571 160.727 97.8469 163.609 97.771C164.747 97.771 171.573 95.4955 178.628 92.689C189.55 88.3656 191.522 87.3037 191.75 85.8625C191.901 84.8765 191.522 84.0421 190.915 83.7387C190.309 83.5112 183.861 85.635 176.655 88.4414C163.988 93.2959 163.457 93.4475 158.679 92.9924C156.024 92.689 152.383 92.0064 150.715 91.3237C148.97 90.7169 142.75 89.3516 136.91 88.3656C131.069 87.3795 124.091 85.8625 121.436 85.0282C115.52 83.0561 114.003 83.0561 111.045 84.8765ZM116.885 101.715C119.995 103.005 122.802 104.37 123.257 104.749C123.636 105.129 119.54 105.432 113.093 105.432H102.322L102.55 103.384C103.081 98.9088 108.694 98.2261 116.885 101.715ZM88.8208 150.259C88.3657 153.142 88.0623 153.521 84.8007 154.81C80.8565 156.327 79.2636 156.1 78.05 153.824C76.2296 150.411 80.0221 147.225 86.166 147.15H89.2L88.8208 150.259ZM99.7432 159.361L105.053 159.437L99.7432 161.94C93.5993 164.899 89.9585 165.278 88.7449 163.154C87.683 161.03 87.7589 160.272 89.5034 158.527C90.9446 157.086 91.1721 157.086 92.765 158.148C93.8269 158.906 96.2541 159.286 99.7432 159.361ZM135.393 159.968C134.028 161.258 112.865 169.905 111.121 169.905C109.376 169.905 106.949 168.16 106.949 166.871C106.949 164.823 108.466 163.457 112.562 161.561C116.81 159.589 117.947 159.361 126.67 159.361C132.207 159.286 135.772 159.589 135.393 159.968Z" fill="#A9865B"/>
</svg>
