<svg width="220" height="221" viewBox="0 0 220 221" fill="none" xmlns="http://www.w3.org/2000/svg">
<path d="M55.7586 70.1733C43.8482 72.5276 35.1241 77.2362 27.462 85.3623C19.0414 94.3997 14.4138 105.64 12.8207 120.601C10.5448 142.929 16.462 166.244 27.3103 177.028C38.3862 188.116 55.6069 191.002 65.6207 183.331C68.1241 181.433 71.3103 177.18 71.3103 175.737C71.3103 175.357 69.9448 174.218 68.2758 173.155C62.8138 169.737 58.4896 161.915 57.3517 153.181L56.8965 149.612H59.4C60.7655 149.612 65.2414 151.131 69.4138 152.953L77 156.219L83.2965 164.801C86.7103 169.509 89.3655 173.534 89.2138 173.686C88.9862 173.914 87.0896 173.458 84.9655 172.775C82.8414 172.091 80.6414 171.636 80.1103 171.864C79.0482 172.319 76.2414 185.534 77 186.825C77.2276 187.205 78.1379 187.584 78.8965 187.584C79.9586 187.584 80.4896 186.673 81.0965 183.787C81.5517 181.661 81.931 179.458 81.931 178.851C81.931 176.876 83.4482 176.876 91.4896 178.927C104.159 182.04 109.848 180.369 115.841 171.864C125.172 158.497 128.434 144.144 123.807 136.549C123.048 135.182 121.076 131.993 119.559 129.562C116.524 124.55 116.069 121.056 117.89 115.816C120.165 109.361 117.207 98.2729 111.214 90.7544C109.165 88.2482 108.786 87.185 109.09 84.6788C109.697 78.2234 104.159 73.7427 92.3241 71.3125C82.9172 69.4138 63.0414 68.7303 55.7586 70.1733ZM93.6138 75.8692C101.2 77.9197 104.69 80.3499 104.69 83.8434C104.69 90.2228 90.2 105.26 77.3034 112.247C73.2827 114.449 72.0689 115.437 72.0689 116.728C72.0689 119.234 74.1172 118.93 79.8069 115.74C88.3793 110.88 96.1172 104.424 102.186 96.9819C107.117 90.9822 107.193 91.0582 111.062 98.8046C114.628 105.867 115.083 109.741 113.414 116.576C111.972 122.196 112.124 123.639 114.931 130.018C115.462 131.309 114.703 131.385 104.69 131.385H93.9172L80.1862 125.613C72.6 122.499 64.862 118.778 62.9655 117.487C60.1586 115.512 58.7172 115.057 54.6207 114.829C50.6 114.677 49.1586 114.905 46.731 116.348C41.5724 119.386 39.6758 125.765 41.8758 132.22C43.0138 135.562 48.5517 144.144 51.131 146.498C52.6483 147.941 53.1034 149.08 53.1034 151.51C53.1034 155.384 54.9241 162.371 56.9724 166.547C57.8827 168.294 60.3103 171.484 62.3586 173.686L66.1517 177.56L62.9655 179.914C58.262 183.331 54.5448 184.167 48.1724 183.255C31.862 180.901 21.8483 168.218 17.8276 144.751C16.2345 135.334 16.3862 122.044 18.131 113.31C22.2276 93.5643 35.8827 78.907 54.0138 74.8059C61.4482 73.0592 85.7241 73.7427 93.6138 75.8692ZM58.0345 119.538C60.8414 120.753 62.2069 122.727 62.2069 125.537C62.2069 128.727 65.4689 129.031 66.6069 126.069C67.062 124.778 68.1241 125.082 78.1379 129.258C84.2069 131.841 89.2138 133.967 89.3655 134.119C89.5931 134.271 79.4276 149.991 78.1379 151.358C77.8345 151.662 75.5586 151.055 73.131 149.991C70.7034 148.852 67.8965 147.637 66.9862 147.257C65.4689 146.726 65.3931 146.346 66.0758 144.599C66.6069 143.005 66.531 142.245 65.6965 141.41C64.4069 140.119 63.1172 140.726 62.2069 143.232C61.0689 146.118 56.8207 145.966 53.6345 142.929C50.6758 140.119 46.2 132.6 45.4414 129.031C43.6965 121.512 50.5241 116.424 58.0345 119.538ZM119.559 137.233C120.697 138.979 121 140.802 121 146.574C121 153.561 120.848 154.017 117.814 160.244C111.669 172.623 107.724 176.193 100.365 176.193H96.7241L89.5172 166.168C85.5724 160.7 82.0827 155.763 81.7793 155.308C81.4758 154.852 84.0551 150.219 87.6965 144.827L94.0689 135.182H106.131H118.193L119.559 137.233Z" fill="#A9865B"/>
<path d="M145.276 71.1604C140.421 71.8439 133.821 73.8944 129.724 75.9449C123.959 78.9068 118.041 84.2229 118.724 85.9697C119.559 88.0961 121.228 87.6404 124.945 84.2989C126.841 82.6281 130.179 80.4257 132.303 79.3624C140.193 75.5652 143.455 75.1855 168.11 75.1855C189.276 75.1855 191.021 75.2614 192.159 76.5525C193.676 78.2233 193.828 83.0078 192.462 84.147C191.931 84.6026 186.848 85.5899 181.234 86.2734C175.697 86.9569 170.766 87.7923 170.462 88.0961C170.083 88.3999 170.159 91.2099 170.614 94.2477C171.448 99.336 171.372 99.9435 170.083 101.766C168.869 103.361 167.807 103.741 163.559 104.121C159.69 104.424 158.097 104.956 156.655 106.323C154.228 108.601 152.634 113.614 153.924 114.905C155.062 116.044 157.338 114.677 157.641 112.626C158.021 109.968 160.372 108.525 165 108.222C169.703 107.918 172.207 106.627 174.179 103.589C175.166 102.146 175.393 100.627 175.014 96.526L174.559 91.2858L181.234 90.4504C184.876 89.9947 188.593 89.615 189.428 89.615C192.917 89.615 198.986 100.171 200.503 108.829C201.186 112.93 201.11 114.145 200.048 116.879C198.455 120.752 198.455 124.17 199.897 128.347C200.503 130.094 201.034 131.84 201.034 132.22C201.034 132.6 196.407 132.904 190.793 132.904H180.552L165.986 125.613C157.945 121.588 150.207 117.411 148.765 116.272C145.2 113.538 136.628 113.082 132.91 115.36C125.097 120.297 125.552 130.397 134.048 141.561C137.917 146.65 140.269 148.169 144.593 148.7C147.172 148.928 150.586 150.371 155.821 153.333C163.103 157.51 163.407 157.738 169.628 166.319C173.041 171.104 175.772 175.129 175.621 175.281C175.469 175.433 173.497 174.977 171.145 174.218C168.338 173.306 166.593 173.155 166.138 173.61C165.076 174.673 162.8 186.445 163.331 187.888C164.014 189.711 166.062 189.331 166.821 187.356C167.2 186.369 167.731 183.939 168.034 182.04C168.338 180.066 168.945 178.471 169.4 178.471C169.779 178.471 173.876 179.382 178.352 180.521C185.938 182.344 186.924 182.42 190.945 181.584C194.738 180.749 195.952 179.99 199.517 176.268C204.448 171.332 209.455 161.839 211.428 153.864C213.172 146.574 212.186 140.726 208.014 134.423C206.345 131.916 204.372 128.347 203.69 126.524C202.476 123.335 202.476 122.955 203.69 119.158C206.269 111.335 203.69 99.1081 197.697 91.2099L195.193 87.9442L196.634 85.1343C198.303 81.9446 198.076 77.7676 196.103 74.7298C193.6 70.9325 191.476 70.6288 168.641 70.7047C157.034 70.7806 146.565 71.0085 145.276 71.1604ZM145.428 119.234C147.248 120.297 148.007 121.436 148.386 123.562C148.69 125.157 149.221 126.676 149.676 126.98C150.814 127.663 152.483 126.828 152.483 125.613C152.483 125.005 152.862 124.55 153.241 124.55C153.848 124.55 175.014 134.878 175.772 135.486C176.152 135.79 164.621 153.029 164.166 152.953C163.938 152.953 161.055 151.434 157.793 149.612C151.876 146.27 151.876 146.27 151.952 143.232C152.103 139.359 150.131 138.524 148.538 141.789C147.779 143.46 146.945 143.992 144.821 144.144C142.393 144.371 141.71 143.992 138.903 140.802C134.276 135.562 130.938 128.347 131.469 124.854C132.531 118.55 139.586 115.664 145.428 119.234ZM206.345 140.194C207.786 143.08 208.014 144.523 207.71 149.308C207.407 154.168 206.8 156.067 203.766 162.294C198 173.762 193.676 177.711 186.772 177.711H183.131L175.317 167.003L167.579 156.219L174.028 146.498L180.552 136.701H192.614H204.676L206.345 140.194Z" fill="#A9865B"/>
</svg>
